<svg width="56" height="56" viewBox="0 0 56 56" fill="none" xmlns="http://www.w3.org/2000/svg">
<circle cx="28" cy="28" r="27.5" stroke="#4A4A4A"/>
<mask id="mask0_103_365" style="mask-type:alpha" maskUnits="userSpaceOnUse" x="16" y="16" width="24" height="24">
<rect x="16" y="16" width="24" height="24" fill="#D9D9D9"/>
</mask>
<g mask="url(#mask0_103_365)">
<path d="M30.475 28L23.125 20.65C22.875 20.4 22.7542 20.1042 22.7625 19.7625C22.7708 19.4208 22.9 19.125 23.15 18.875C23.4 18.625 23.6958 18.5 24.0375 18.5C24.3792 18.5 24.675 18.625 24.925 18.875L32.6 26.575C32.8 26.775 32.95 27 33.05 27.25C33.15 27.5 33.2 27.75 33.2 28C33.2 28.25 33.15 28.5 33.05 28.75C32.95 29 32.8 29.225 32.6 29.425L24.9 37.125C24.65 37.375 24.3583 37.4958 24.025 37.4875C23.6917 37.4792 23.4 37.35 23.15 37.1C22.9 36.85 22.775 36.5542 22.775 36.2125C22.775 35.8708 22.9 35.575 23.15 35.325L30.475 28Z" fill="#4A4A4A"/>
</g>
</svg>
