<svg width="56" height="56" viewBox="0 0 56 56" fill="none" xmlns="http://www.w3.org/2000/svg">
<circle cx="28" cy="28" r="27.5" transform="matrix(-1 0 0 1 56 0)" stroke="#4A4A4A"/>
<mask id="mask0_103_366" style="mask-type:alpha" maskUnits="userSpaceOnUse" x="16" y="16" width="24" height="24">
<rect width="24" height="24" transform="matrix(-1 0 0 1 40 16)" fill="#D9D9D9"/>
</mask>
<g mask="url(#mask0_103_366)">
<path d="M25.525 28L32.875 20.65C33.125 20.4 33.2458 20.1042 33.2375 19.7625C33.2292 19.4208 33.1 19.125 32.85 18.875C32.6 18.625 32.3042 18.5 31.9625 18.5C31.6208 18.5 31.325 18.625 31.075 18.875L23.4 26.575C23.2 26.775 23.05 27 22.95 27.25C22.85 27.5 22.8 27.75 22.8 28C22.8 28.25 22.85 28.5 22.95 28.75C23.05 29 23.2 29.225 23.4 29.425L31.1 37.125C31.35 37.375 31.6417 37.4958 31.975 37.4875C32.3083 37.4792 32.6 37.35 32.85 37.1C33.1 36.85 33.225 36.5542 33.225 36.2125C33.225 35.8708 33.1 35.575 32.85 35.325L25.525 28Z" fill="#4A4A4A"/>
</g>
</svg>
