<svg width="32" height="32" viewBox="0 0 32 32" fill="none" xmlns="http://www.w3.org/2000/svg">
<g clip-path="url(#clip0_46_28)">
<path d="M16 0.5C24.5607 0.5 31.4998 7.43938 31.5 16C31.5 24.5607 24.5606 31.5008 16 31.501C7.43996 31.5002 0.5 24.56 0.5 16C0.500217 7.43952 7.43952 0.500217 16 0.5Z" fill="white" stroke="#4A4A4A"/>
<path d="M20.7406 14.7585L20.474 16.8991C20.4289 17.2567 20.1261 17.5256 19.767 17.5256H16.3V26.4753C15.9344 26.5084 15.5639 26.5253 15.1894 26.5253C14.3519 26.5253 13.5345 26.4415 12.7444 26.2821V17.5256H10.078C9.83315 17.5256 9.63342 17.3251 9.63342 17.0795V14.4009C9.63342 14.1553 9.83315 13.9548 10.078 13.9548H12.7444V9.93778C12.7444 7.47265 14.7344 5.47461 17.1899 5.47461H20.3009C20.5457 5.47461 20.7454 5.67514 20.7454 5.92076V8.59931C20.7454 8.84494 20.5457 9.04547 20.3009 9.04547H18.0782C17.0965 9.04547 16.3008 9.84436 16.3008 10.8309V13.9556H20.0343C20.4628 13.9556 20.7938 14.3325 20.7414 14.7593L20.7406 14.7585Z" fill="#4A4A4A"/>
</g>
<defs>
<clipPath id="clip0_46_28">
<rect width="32" height="32" fill="white"/>
</clipPath>
</defs>
</svg>
