<svg width="32" height="32" viewBox="0 0 32 32" fill="none" xmlns="http://www.w3.org/2000/svg">
<g clip-path="url(#clip0_46_31)">
<path d="M16 0.5C24.5607 0.5 31.4998 7.43938 31.5 16C31.5 24.5607 24.5606 31.5008 16 31.501C7.43996 31.5002 0.5 24.56 0.5 16C0.500217 7.43952 7.43952 0.500217 16 0.5Z" fill="white" stroke="#4A4A4A"/>
<path d="M21.375 9.625C21.8398 9.625 22.25 10.0352 22.25 10.5273V21C22.25 21.4922 21.8398 21.875 21.375 21.875H10.8477C10.3828 21.875 10 21.4922 10 21V10.5273C10 10.0352 10.3828 9.625 10.8477 9.625H21.375ZM13.6914 20.125V14.3008H11.8867V20.125H13.6914ZM12.7891 13.4805C13.3633 13.4805 13.8281 13.0156 13.8281 12.4414C13.8281 11.8672 13.3633 11.375 12.7891 11.375C12.1875 11.375 11.7227 11.8672 11.7227 12.4414C11.7227 13.0156 12.1875 13.4805 12.7891 13.4805ZM20.5 20.125V16.9258C20.5 15.3672 20.1445 14.1367 18.3125 14.1367C17.4375 14.1367 16.8359 14.6289 16.5898 15.0938H16.5625V14.3008H14.8398V20.125H16.6445V17.2539C16.6445 16.4883 16.7812 15.75 17.7383 15.75C18.668 15.75 18.668 16.625 18.668 17.2812V20.125H20.5Z" fill="#4A4A4A"/>
</g>
<defs>
<clipPath id="clip0_46_31">
<rect width="32" height="32" fill="white"/>
</clipPath>
</defs>
</svg>
