<svg width="32" height="32" viewBox="0 0 32 32" fill="none" xmlns="http://www.w3.org/2000/svg">
<g clip-path="url(#clip0_46_20)">
<path d="M16 0.5C24.5607 0.5 31.4998 7.43938 31.5 16C31.5 24.5607 24.5606 31.5008 16 31.501C7.43996 31.5002 0.5 24.56 0.5 16C0.500217 7.43952 7.43952 0.500217 16 0.5Z" fill="white" stroke="#4A4A4A"/>
<path d="M22.8957 9.22021H9.10512C7.74249 9.22021 6.63757 10.3251 6.63757 11.687V20.3121C6.63757 21.6747 7.74249 22.7788 9.10512 22.7788H22.8957C24.2575 22.7788 25.3624 21.6747 25.3624 20.3121V11.687C25.3624 10.3251 24.2575 9.22021 22.8957 9.22021ZM18.2151 16.5947L14.3801 18.5114C13.9371 18.7328 13.4169 18.4115 13.4169 17.917V14.0836C13.4169 13.5892 13.9379 13.2678 14.3801 13.4885L18.2151 15.4052C18.7047 15.65 18.7047 16.3498 18.2151 16.5947Z" fill="#4A4A4A"/>
</g>
<defs>
<clipPath id="clip0_46_20">
<rect width="32" height="32" fill="white"/>
</clipPath>
</defs>
</svg>
