<svg width="40" height="40" viewBox="0 0 40 40" fill="none" xmlns="http://www.w3.org/2000/svg">
<mask id="mask0_40_111" style="mask-type:alpha" maskUnits="userSpaceOnUse" x="0" y="0" width="40" height="40">
<rect width="40" height="40" fill="#D9D9D9"/>
</mask>
<g mask="url(#mask0_40_111)">
<path d="M20 21.6668C18.6111 21.6668 17.4305 21.1807 16.4583 20.2085C15.4861 19.2363 15 18.0557 15 16.6668C15 15.2779 15.4861 14.0974 16.4583 13.1252C17.4305 12.1529 18.6111 11.6668 20 11.6668C21.3888 11.6668 22.5694 12.1529 23.5416 13.1252C24.5138 14.0974 25 15.2779 25 16.6668C25 18.0557 24.5138 19.2363 23.5416 20.2085C22.5694 21.1807 21.3888 21.6668 20 21.6668ZM20 35.0002L12.2083 37.5835C11.6527 37.7779 11.1458 37.7085 10.6875 37.3752C10.2291 37.0418 9.99996 36.5974 9.99996 36.0418V25.4585C8.9444 24.2918 8.12496 22.9585 7.54163 21.4585C6.95829 19.9585 6.66663 18.3613 6.66663 16.6668C6.66663 12.9446 7.95829 9.79183 10.5416 7.2085C13.125 4.62516 16.2777 3.3335 20 3.3335C23.7222 3.3335 26.875 4.62516 29.4583 7.2085C32.0416 9.79183 33.3333 12.9446 33.3333 16.6668C33.3333 18.3613 33.0416 19.9585 32.4583 21.4585C31.875 22.9585 31.0555 24.2918 30 25.4585V36.0418C30 36.5974 29.7708 37.0418 29.3125 37.3752C28.8541 37.7085 28.3472 37.7779 27.7916 37.5835L20 35.0002ZM20 26.6668C22.7777 26.6668 25.1388 25.6946 27.0833 23.7502C29.0277 21.8057 30 19.4446 30 16.6668C30 13.8891 29.0277 11.5279 27.0833 9.5835C25.1388 7.63905 22.7777 6.66683 20 6.66683C17.2222 6.66683 14.8611 7.63905 12.9166 9.5835C10.9722 11.5279 9.99996 13.8891 9.99996 16.6668C9.99996 19.4446 10.9722 21.8057 12.9166 23.7502C14.8611 25.6946 17.2222 26.6668 20 26.6668Z" fill="#F7941D"/>
</g>
</svg>
