<svg width="40" height="40" viewBox="0 0 40 40" fill="none" xmlns="http://www.w3.org/2000/svg">
<mask id="mask0_40_137" style="mask-type:alpha" maskUnits="userSpaceOnUse" x="0" y="0" width="40" height="40">
<rect width="40" height="40" fill="#D9D9D9"/>
</mask>
<g mask="url(#mask0_40_137)">
<path d="M19.9999 36.6668C17.6944 36.6668 15.5277 36.2293 13.4999 35.3543C11.4721 34.4793 9.70825 33.2918 8.20825 31.7918C6.70825 30.2918 5.52075 28.5279 4.64575 26.5002C3.77075 24.4724 3.33325 22.3057 3.33325 20.0002C3.33325 17.6946 3.77075 15.5279 4.64575 13.5002C5.52075 11.4724 6.70825 9.7085 8.20825 8.2085C9.70825 6.7085 11.4721 5.521 13.4999 4.646C15.5277 3.771 17.6944 3.3335 19.9999 3.3335C22.3055 3.3335 24.4721 3.771 26.4999 4.646C28.5277 5.521 30.2916 6.7085 31.7916 8.2085C33.2916 9.7085 34.4791 11.4724 35.3541 13.5002C36.2291 15.5279 36.6666 17.6946 36.6666 20.0002C36.6666 22.3057 36.2291 24.4724 35.3541 26.5002C34.4791 28.5279 33.2916 30.2918 31.7916 31.7918C30.2916 33.2918 28.5277 34.4793 26.4999 35.3543C24.4721 36.2293 22.3055 36.6668 19.9999 36.6668ZM19.9999 33.3335C23.7221 33.3335 26.8749 32.0418 29.4583 29.4585C32.0416 26.8752 33.3333 23.7224 33.3333 20.0002C33.3333 19.8057 33.3263 19.6043 33.3124 19.396C33.2985 19.1877 33.2916 19.0141 33.2916 18.8752C33.1527 19.6807 32.7777 20.3474 32.1666 20.8752C31.5555 21.4029 30.8333 21.6668 29.9999 21.6668H26.6666C25.7499 21.6668 24.9652 21.3404 24.3124 20.6877C23.6596 20.0349 23.3333 19.2502 23.3333 18.3335V16.6668H16.6666V13.3335C16.6666 12.4168 16.993 11.6321 17.6458 10.9793C18.2985 10.3266 19.0833 10.0002 19.9999 10.0002H21.6666C21.6666 9.36127 21.8402 8.79877 22.1874 8.31266C22.5346 7.82655 22.9583 7.43072 23.4583 7.12516C22.9027 6.98627 22.3402 6.87516 21.7708 6.79183C21.2013 6.7085 20.611 6.66683 19.9999 6.66683C16.2777 6.66683 13.1249 7.9585 10.5416 10.5418C7.95825 13.1252 6.66659 16.2779 6.66659 20.0002H14.9999C16.8333 20.0002 18.4027 20.6529 19.7083 21.9585C21.0138 23.2641 21.6666 24.8335 21.6666 26.6668V28.3335H16.6666V32.9168C17.2221 33.0557 17.7708 33.1599 18.3124 33.2293C18.8541 33.2988 19.4166 33.3335 19.9999 33.3335Z" fill="#F7941D"/>
</g>
</svg>
