<svg width="146" height="114" viewBox="0 0 146 114" fill="none" xmlns="http://www.w3.org/2000/svg">
<mask id="mask0_105_495" style="mask-type:luminance" maskUnits="userSpaceOnUse" x="51" y="0" width="95" height="64">
<path d="M88.1464 4.01825C77.2619 14.7667 66.4759 25.6143 55.7887 36.5611C52.7798 39.6368 51.4973 43.6055 51.9906 47.971C52.7305 54.0728 55.986 58.3887 61.8064 60.373C67.7255 62.407 73.0034 60.8691 77.4427 56.4044C83.7564 50.0545 90.0701 43.7047 96.3838 37.3549C96.8771 36.8588 97.4197 36.3627 98.4062 35.4698C98.9488 36.2139 99.2941 36.9084 99.8367 37.4541C106.874 44.6307 113.977 51.7578 121.145 58.8352C127.015 64.5897 136.239 64.3417 141.862 58.5375C147.436 52.7334 147.387 43.6551 141.665 37.8013C130.616 26.6561 119.534 15.5273 108.419 4.41512C105.509 1.48824 101.711 0 97.9623 0C94.4108 0 90.9087 1.33942 88.1464 4.01825Z" fill="white"/>
</mask>
<g mask="url(#mask0_105_495)">
<path d="M98.5049 35.2714C97.5183 36.2635 97.0251 36.7596 96.5318 37.2557C89.955 43.5394 83.5427 49.9884 77.2948 56.6028C72.8554 61.0676 67.9228 62.5558 62.0037 60.5715C56.0846 58.5872 52.6318 54.1224 52.1386 48.1695C51.6453 43.7047 52.6318 39.7361 55.5914 36.7596C66.4431 25.8458 77.2947 14.932 88.1464 4.01827C93.5723 -1.43861 102.944 -1.43861 108.37 4.51436C119.551 15.4281 130.567 26.5073 141.418 37.7518C147.337 43.7047 147.337 52.6342 141.912 58.5872C135.993 64.5401 127.114 64.5401 121.195 58.5872C113.96 51.642 106.89 44.5315 99.9846 37.2557C99.4914 36.7596 98.9981 36.2635 98.5049 35.2714Z" fill="#7D7D7D"/>
</g>
<mask id="mask1_105_495" style="mask-type:luminance" maskUnits="userSpaceOnUse" x="91" y="0" width="55" height="64">
<path d="M94.4602 0.446473C91.6979 4.56394 89.3303 13.0469 93.9669 29.8641L97.617 36.2139C97.8472 35.9824 98.1103 35.7343 98.4062 35.4698C98.9488 36.2139 99.2941 36.9084 99.8367 37.4541C106.874 44.6307 113.977 51.7578 121.145 58.8352C127.015 64.5897 136.239 64.3417 141.862 58.5375C147.436 52.7334 147.387 43.6551 141.665 37.8013C130.616 26.6561 119.534 15.5273 108.419 4.41512C105.509 1.48824 101.711 0 97.9623 0C96.7785 0 95.6111 0.148825 94.4602 0.446473Z" fill="white"/>
</mask>
<g mask="url(#mask1_105_495)">
<path d="M92.0926 -12.3524L160.656 3.02608L144.871 76.9421L75.8151 61.5636L92.0926 -12.3524Z" fill="url(#paint0_linear_105_495)"/>
</g>
<mask id="mask2_105_495" style="mask-type:luminance" maskUnits="userSpaceOnUse" x="51" y="0" width="54" height="62">
<path d="M88.1464 4.01825C77.2619 14.7667 66.4759 25.6143 55.7887 36.5611C52.7798 39.6368 51.4973 43.6055 51.9906 47.971C52.7305 54.0728 55.986 58.3887 61.8064 60.373C67.7255 62.407 73.0034 60.8691 77.4427 56.4044C83.7564 50.0545 90.0701 43.7047 96.3838 37.3549C96.8771 36.8588 97.4197 36.3627 98.3569 35.5194C109.061 15.9242 103.141 5.06002 98.1596 0C98.0938 0 98.028 0 97.9623 0C94.4108 0 90.8593 1.33942 88.1464 4.01825Z" fill="white"/>
</mask>
<g mask="url(#mask2_105_495)">
<path d="M139.939 31.3027L80.2543 91.3285L20.5701 30.8067L80.7476 -28.723L139.939 31.3027Z" fill="url(#paint1_linear_105_495)"/>
</g>
<mask id="mask3_105_495" style="mask-type:luminance" maskUnits="userSpaceOnUse" x="51" y="31" width="33" height="31">
<path d="M59.7348 32.5429C58.4194 33.8988 57.104 35.2383 55.7887 36.5611C52.7798 39.6368 51.4973 43.6055 51.9906 47.971C52.7305 54.0728 55.986 58.3887 61.8064 60.373C67.7255 62.407 73.0034 60.8691 77.4427 56.4044C79.5802 54.2547 81.7176 52.105 83.8551 49.9553C83.6907 47.971 83.2961 46.0197 82.6713 44.1016C80.6982 38.347 75.519 33.6839 70.2905 32.0964C68.7121 31.6003 67.1665 31.3688 65.6538 31.4019C63.5493 31.4019 61.5763 31.7822 59.7348 32.5429Z" fill="white"/>
</mask>
<g mask="url(#mask3_105_495)">
<path d="M98.0116 52.6342L61.5105 77.4382L37.3408 40.7282L73.8419 16.4203L98.0116 52.6342Z" fill="url(#paint2_linear_105_495)"/>
</g>
<mask id="mask4_105_495" style="mask-type:luminance" maskUnits="userSpaceOnUse" x="0" y="2" width="112" height="112">
<path d="M24.3189 2.77801C22.0828 3.50559 20.0933 4.7954 18.3504 6.64744C6.21627 19.5951 0.0012207 34.0807 0.0012207 49.8561C0.0012207 56.7681 1.18504 63.9282 3.55268 71.3364C11.8887 97.083 36.0091 113.85 62.3491 113.999C62.4477 113.999 62.5464 113.999 62.645 113.999C62.6779 113.999 62.6944 113.999 62.6944 113.999C65.5224 113.999 68.3668 113.801 71.2277 113.404C85.039 111.486 96.91 105.632 106.841 95.8428C109.949 92.7671 111.379 88.9472 111.379 85.1274C111.379 79.0256 107.68 73.1223 101.07 71.1379C100.938 71.0718 100.79 71.0222 100.626 70.9891C99.2777 70.6253 97.9788 70.4269 96.7292 70.3938C96.6305 70.3938 96.5319 70.3938 96.4332 70.3938C96.3346 70.3938 96.2195 70.3938 96.088 70.3938C93.0297 70.493 90.2017 71.5844 87.6039 73.668C87.1764 73.9987 86.7325 74.379 86.2721 74.8089C79.7611 81.1092 71.9676 84.3833 61.7078 84.5817C60.3267 84.3833 57.7125 84.1849 55.1475 83.6392C40.0538 80.2658 29.3994 66.1771 29.4487 50.9971C29.4487 49.4096 29.5638 47.8221 29.794 46.2347C30.945 38.9258 34.0689 32.609 39.1659 27.2844C42.0268 24.3079 43.5066 20.5377 43.5066 16.8667C43.5559 13.1461 42.1255 9.4751 39.3632 6.59783C39.133 6.36633 38.9193 6.15136 38.722 5.95292C38.6891 5.95292 38.6562 5.91986 38.6234 5.85371C35.8118 3.37331 32.3096 2.0835 28.8075 2.0835C27.2949 2.0835 25.7986 2.315 24.3189 2.77801Z" fill="white"/>
</mask>
<g mask="url(#mask4_105_495)">
<path d="M-49.3258 30.757L83.3607 -43.6552L156.856 89.2945L24.6629 163.707L-49.3258 30.757Z" fill="url(#paint3_linear_105_495)"/>
<mask id="mask5_105_495" style="mask-type:luminance" maskUnits="userSpaceOnUse" x="0" y="38" width="85" height="76">
<path d="M0.987692 39.0415C-0.919574 49.2277 -0.0645952 59.9927 3.55263 71.3364C12.8259 99.9602 41.5829 117.521 71.2277 113.404C75.9958 112.743 80.5338 111.618 84.8416 110.031C79.6131 109.733 57.4658 108.096 44.2464 101.448C38.0807 98.3728 33.4441 96.0412 29.3007 86.1196C25.3053 76.5948 28.8568 66.822 26.1439 56.9996C24.0722 49.36 17.7585 42.8117 11.0502 40.2321C8.58387 39.3392 6.13402 38.8927 3.70061 38.8927C2.77986 38.8927 1.87556 38.9423 0.987692 39.0415Z" fill="white"/>
</mask>
<g mask="url(#mask5_105_495)">
<path d="M118.728 97.7775L20.57 154.827L-34.6749 58.5871L63.4835 1.53784L118.728 97.7775Z" fill="url(#paint4_linear_105_495)"/>
</g>
</g>
<defs>
<linearGradient id="paint0_linear_105_495" x1="79.8844" y1="62.526" x2="143.611" y2="76.2961" gradientUnits="userSpaceOnUse">
<stop stop-color="#404041"/>
<stop offset="1" stop-color="white"/>
</linearGradient>
<linearGradient id="paint1_linear_105_495" x1="80.4171" y1="-28.8123" x2="18.8826" y2="31.8149" gradientUnits="userSpaceOnUse">
<stop stop-color="#D63527"/>
<stop offset="1" stop-color="#F7961D"/>
</linearGradient>
<linearGradient id="paint2_linear_105_495" x1="83.3964" y1="9.94147" x2="41.7415" y2="37.6196" gradientUnits="userSpaceOnUse">
<stop stop-color="#FDB831"/>
<stop offset="1" stop-color="#F47528"/>
</linearGradient>
<linearGradient id="paint3_linear_105_495" x1="40.5804" y1="154.638" x2="165.488" y2="85.3802" gradientUnits="userSpaceOnUse">
<stop stop-color="#D63527"/>
<stop offset="1" stop-color="#F7961D"/>
</linearGradient>
<linearGradient id="paint4_linear_105_495" x1="33.7104" y1="18.8163" x2="-23.0526" y2="51.3351" gradientUnits="userSpaceOnUse">
<stop stop-color="#FDB831"/>
<stop offset="1" stop-color="#F47528"/>
</linearGradient>
</defs>
</svg>
