<svg width="225" height="24" viewBox="0 0 225 24" fill="none" xmlns="http://www.w3.org/2000/svg">
<mask id="mask0_100_242" style="mask-type:luminance" maskUnits="userSpaceOnUse" x="10" y="0" width="21" height="14">
<path d="M18.5145 0.845948C16.2283 3.10877 13.9628 5.39248 11.718 7.69708C11.086 8.3446 10.8166 9.18011 10.9203 10.0992C11.0757 11.3837 11.7595 12.2924 12.982 12.7101C14.2253 13.1383 15.3338 12.8145 16.2663 11.8746C17.5924 10.5378 18.9186 9.20099 20.2447 7.86419C20.3483 7.75975 20.4623 7.65531 20.6695 7.46732C20.7835 7.62398 20.856 7.77019 20.97 7.88507C22.4481 9.39594 23.94 10.8964 25.4457 12.3864C26.6786 13.5978 28.616 13.5456 29.7971 12.3237C30.9679 11.1018 30.9575 9.19055 29.7557 7.95818C27.4349 5.6118 25.1073 3.26891 22.7727 0.929498C22.1614 0.313314 21.3637 0 20.5763 0C19.8303 0 19.0947 0.281982 18.5145 0.845948Z" fill="white"/>
</mask>
<g mask="url(#mask0_100_242)">
<path d="M20.6902 7.42555C20.483 7.63442 20.3794 7.73886 20.2758 7.8433C18.8944 9.16618 17.5475 10.5239 16.2352 11.9164C15.3028 12.8563 14.2667 13.1696 13.0234 12.7519C11.7802 12.3341 11.0549 11.3942 10.9513 10.1409C10.8477 9.20099 11.0549 8.36549 11.6766 7.73886C13.9559 5.44122 16.2352 3.14359 18.5145 0.845948C19.6542 -0.30287 21.6227 -0.30287 22.7623 0.950387C25.1107 3.24802 27.4246 5.58047 29.7039 7.94774C30.9472 9.20099 30.9472 11.0809 29.8075 12.3341C28.5642 13.5874 26.6993 13.5874 25.4561 12.3341C23.9365 10.872 22.4515 9.37506 21.0011 7.8433C20.8974 7.73886 20.7938 7.63442 20.6902 7.42555Z" fill="#7D7D7D"/>
</g>
<mask id="mask1_100_242" style="mask-type:luminance" maskUnits="userSpaceOnUse" x="19" y="0" width="12" height="14">
<path d="M19.8407 0.0939944C19.2605 0.96083 18.7632 2.74672 19.7371 6.28717L20.5037 7.62398C20.5521 7.57524 20.6074 7.52302 20.6695 7.46732C20.7835 7.62398 20.856 7.77019 20.97 7.88507C22.4481 9.39594 23.94 10.8964 25.4457 12.3864C26.6786 13.5978 28.616 13.5456 29.7971 12.3237C30.9679 11.1018 30.9575 9.19055 29.7557 7.95818C27.4349 5.6118 25.1073 3.26891 22.7727 0.929498C22.1614 0.313314 21.3637 0 20.5763 0C20.3276 0 20.0824 0.0313316 19.8407 0.0939944Z" fill="white"/>
</mask>
<g mask="url(#mask1_100_242)">
<path d="M19.3434 -2.60051L33.7445 0.637072L30.4291 16.1983L15.9244 12.9608L19.3434 -2.60051Z" fill="url(#paint0_linear_100_242)"/>
</g>
<mask id="mask2_100_242" style="mask-type:luminance" maskUnits="userSpaceOnUse" x="10" y="0" width="12" height="13">
<path d="M18.5145 0.845948C16.2283 3.10877 13.9628 5.39248 11.718 7.69708C11.086 8.3446 10.8166 9.18011 10.9203 10.0992C11.0757 11.3837 11.7595 12.2924 12.982 12.7101C14.2253 13.1383 15.3338 12.8145 16.2663 11.8746C17.5924 10.5378 18.9186 9.20099 20.2447 7.86419C20.3483 7.75975 20.4623 7.65531 20.6592 7.47776C22.9074 3.35246 21.6641 1.06527 20.6177 0C20.6039 0 20.5901 0 20.5763 0C19.8303 0 19.0844 0.281982 18.5145 0.845948Z" fill="white"/>
</mask>
<g mask="url(#mask2_100_242)">
<path d="M29.3931 6.59004L16.8568 19.227L4.32059 6.4856L16.9604 -6.04696L29.3931 6.59004Z" fill="url(#paint1_linear_100_242)"/>
</g>
<mask id="mask3_100_242" style="mask-type:luminance" maskUnits="userSpaceOnUse" x="10" y="6" width="8" height="7">
<path d="M12.5469 6.85113C12.2706 7.1366 11.9943 7.41858 11.718 7.69708C11.086 8.3446 10.8166 9.1801 10.9203 10.0992C11.0757 11.3837 11.7595 12.2924 12.982 12.7101C14.2253 13.1383 15.3338 12.8145 16.2663 11.8746C16.7152 11.422 17.1642 10.9695 17.6132 10.5169C17.5786 10.0992 17.4957 9.68836 17.3645 9.28454C16.9501 8.07306 15.8622 7.09134 14.764 6.75714C14.4325 6.6527 14.1078 6.60396 13.7901 6.61092C13.3481 6.61092 12.9337 6.69099 12.5469 6.85113Z" fill="white"/>
</mask>
<g mask="url(#mask3_100_242)">
<path d="M20.5866 11.0809L12.9198 16.3028L7.84317 8.57436L15.51 3.45689L20.5866 11.0809Z" fill="url(#paint2_linear_100_242)"/>
</g>
<mask id="mask4_100_242" style="mask-type:luminance" maskUnits="userSpaceOnUse" x="0" y="0" width="24" height="24">
<path d="M5.108 0.584848C4.63832 0.738023 4.22044 1.00956 3.85437 1.39947C1.30568 4.1253 0.000253677 7.17489 0.000253677 10.496C0.000253677 11.9512 0.248906 13.4586 0.746211 15.0182C2.49714 20.4385 7.56344 23.9685 13.096 23.9999C13.1167 23.9999 13.1374 23.9999 13.1581 23.9999C13.165 23.9999 13.1685 23.9999 13.1685 23.9999C13.7625 23.9999 14.36 23.9581 14.9609 23.8745C17.8618 23.4707 20.3552 22.2383 22.4412 20.1774C23.0939 19.5299 23.3943 18.7257 23.3943 17.9216C23.3943 16.637 22.6173 15.3942 21.229 14.9764C21.2014 14.9625 21.1703 14.952 21.1357 14.9451C20.8526 14.8685 20.5797 14.8267 20.3173 14.8198C20.2965 14.8198 20.2758 14.8198 20.2551 14.8198C20.2344 14.8198 20.2102 14.8198 20.1826 14.8198C19.5402 14.8406 18.9462 15.0704 18.4006 15.509C18.3108 15.5787 18.2175 15.6587 18.1208 15.7493C16.7532 17.0756 15.1163 17.7649 12.9613 17.8067C12.6712 17.7649 12.1221 17.7231 11.5833 17.6083C8.41301 16.8981 6.17513 13.932 6.18549 10.7362C6.18549 10.402 6.20967 10.0678 6.25802 9.73362C6.49976 8.1949 7.15593 6.86506 8.22652 5.74409C8.82743 5.11746 9.13824 4.32373 9.13824 3.55089C9.14861 2.7676 8.84815 1.99476 8.26796 1.38902C8.21961 1.34028 8.17472 1.29503 8.13327 1.25325C8.12637 1.25325 8.11946 1.24629 8.11255 1.23236C7.522 0.710174 6.7864 0.438635 6.05081 0.438635C5.73308 0.438635 5.41881 0.487372 5.108 0.584848Z" fill="white"/>
</mask>
<g mask="url(#mask4_100_242)">
<path d="M-9.97694 6.06785L17.8929 -9.59786L33.3301 18.3915L5.56386 34.0572L-9.97694 6.06785Z" fill="url(#paint3_linear_100_242)"/>
</g>
<mask id="mask5_100_242" style="mask-type:luminance" maskUnits="userSpaceOnUse" x="0" y="8" width="18" height="16">
<path d="M0.207458 8.21927C-0.19315 10.3637 -0.0135678 12.63 0.746205 15.0182C2.69399 21.0443 8.73418 24.7414 14.9609 23.8745C15.9624 23.7353 16.9155 23.4986 17.8204 23.1644C16.7222 23.1017 12.0703 22.757 9.29365 21.3576C7.99858 20.7101 7.02469 20.2192 6.15441 18.1304C5.3152 16.1252 6.06116 14.0678 5.49133 11.9999C5.05619 10.3916 3.73004 9.013 2.32101 8.46992C1.80298 8.28193 1.28841 8.18794 0.777287 8.18794C0.58389 8.18794 0.393947 8.19838 0.207458 8.21927Z" fill="white"/>
</mask>
<g mask="url(#mask5_100_242)">
<path d="M24.9381 20.5847L4.32059 32.5951L-7.28321 12.3341L13.3343 0.323753L24.9381 20.5847Z" fill="url(#paint4_linear_100_242)"/>
</g>
<path d="M37.3707 21.2114H37.7851V2.72583H37.3707V21.2114Z" fill="#7D7D7D"/>
<path d="M58.7134 5.12791C58.7134 6.17229 57.8846 7.00779 56.8485 7.00779H53.7403V19.1226C53.7403 20.2714 52.8079 21.3158 51.7718 21.3158C50.6322 21.3158 49.5961 20.2714 49.5961 19.1226V7.00779H46.488C45.5555 7.00779 44.7267 6.17229 44.7267 5.12791C44.7267 4.08353 45.5555 3.35246 46.488 3.35246H56.8485C57.8846 3.35246 58.7134 4.08353 58.7134 5.12791Z" fill="#7D7D7D"/>
<path d="M72.2857 14.1096V19.227C72.2857 20.3759 71.3532 21.2114 70.2136 21.2114C69.1775 21.2114 68.2451 20.3759 68.2451 19.227V14.1096C68.2451 12.1253 67.3126 11.1853 65.9658 11.1853C63.8937 11.1853 63.4792 13.2741 63.4792 13.5874V19.227C63.4792 20.3759 62.5468 21.2114 61.5107 21.2114C60.3711 21.2114 59.4386 20.3759 59.4386 19.227V5.02347C59.4386 3.87465 60.3711 2.93471 61.5107 2.93471C62.5468 2.93471 63.4792 3.87465 63.4792 5.02347V10.6631C63.5828 9.72318 65.0333 7.73886 67.6235 7.73886C70.2136 7.73886 72.2857 9.61874 72.2857 14.1096Z" fill="#7D7D7D"/>
<path fill-rule="evenodd" clip-rule="evenodd" d="M86.376 13.9007C86.376 15.4673 85.4436 15.9895 83.8895 15.9895L77.466 15.885C77.7768 17.2427 78.8128 17.9738 80.4705 17.9738C81.1958 17.9738 81.403 17.8693 82.0246 17.6605C82.5426 17.556 83.0607 17.2427 83.4751 17.2427C84.3039 17.2427 84.8219 17.8693 84.8219 18.6004C84.8219 19.1226 84.6147 19.7492 83.8895 20.2714C83.0607 20.7936 81.921 21.2114 80.2633 21.2114C76.8443 21.2114 73.2181 19.1226 73.2181 14.5273C73.2181 9.93206 77.1552 7.73886 79.9525 7.73886C82.8534 7.73886 86.376 10.0365 86.376 13.9007ZM77.466 13.1696H82.439C82.1282 11.8119 81.1958 11.2898 79.9525 11.2898C78.8128 11.2898 77.6732 11.8119 77.466 13.1696Z" fill="#7D7D7D"/>
<path d="M109.791 14.0051C109.584 18.9137 105.75 21.3158 102.02 21.3158C97.5654 21.3158 93.1104 17.556 93.1104 12.2297C93.1104 6.79891 97.5654 3.14358 101.917 3.14358C103.678 3.14358 105.025 3.56133 105.957 4.08352C107.097 4.71015 107.822 5.44122 107.822 6.4856C107.822 7.73886 106.89 8.36548 105.854 8.36548C105.129 8.36548 104.611 7.94773 104.3 7.84329C104.196 7.73886 103.471 7.11223 102.02 7.11223C99.5339 7.11223 97.3582 9.40986 97.3582 12.2297C97.3582 15.0495 99.4303 17.3472 102.02 17.3472C103.471 17.3472 105.439 16.5117 105.75 14.7362H103.678C102.746 14.7362 101.917 14.0051 101.917 13.0652C101.917 12.0208 102.746 11.2897 103.678 11.2897H107.512C109.169 11.2897 109.894 12.4386 109.791 14.0051Z" fill="#7D7D7D"/>
<path d="M112.899 21.2114C111.863 21.2114 110.93 20.3759 110.93 19.227V5.02347C110.93 3.87465 111.863 2.93471 112.899 2.93471C114.039 2.93471 114.971 3.87465 114.971 5.02347V19.227C114.971 20.3759 114.039 21.2114 112.899 21.2114Z" fill="#7D7D7D"/>
<path fill-rule="evenodd" clip-rule="evenodd" d="M129.579 14.5273C129.579 19.1226 125.642 21.3158 122.741 21.3158C119.841 21.3158 115.904 19.1226 115.904 14.5273C115.904 10.0365 119.841 7.73886 122.741 7.73886C125.642 7.73886 129.579 10.0365 129.579 14.5273ZM119.944 14.5273C119.944 16.4072 121.187 17.7649 122.741 17.7649C124.296 17.7649 125.642 16.4072 125.642 14.5273C125.642 12.543 124.296 11.2898 122.741 11.2898C121.187 11.2898 119.944 12.543 119.944 14.5273Z" fill="#7D7D7D"/>
<path fill-rule="evenodd" clip-rule="evenodd" d="M143.981 14.5273C143.981 19.1226 140.665 21.3158 137.971 21.3158C136.107 21.3158 134.967 20.3759 134.656 19.6448C134.449 20.5847 133.62 21.2114 132.688 21.2114C131.548 21.2114 130.616 20.3759 130.616 19.227V4.91903C130.616 3.87465 131.548 2.93471 132.688 2.93471C133.724 2.93471 134.656 3.87465 134.656 4.91903V9.5143C134.656 9.58393 134.656 9.68837 134.656 9.82762V9.61874C134.967 8.6788 136.21 7.73886 137.971 7.73886C140.665 7.73886 143.981 9.93206 143.981 14.5273ZM139.94 14.5273C139.94 12.3341 138.593 11.1853 137.143 11.1853C136.107 11.1853 134.449 12.0208 134.449 14.5273C134.449 17.0338 136.107 17.8693 137.143 17.8693C138.593 17.8693 139.94 16.7205 139.94 14.5273Z" fill="#7D7D7D"/>
<path fill-rule="evenodd" clip-rule="evenodd" d="M157.76 9.82762V19.227C157.76 20.3759 156.724 21.2114 155.688 21.2114C154.756 21.2114 153.927 20.5847 153.72 19.6448C153.305 20.3759 152.269 21.3158 150.404 21.3158C147.607 21.3158 144.291 19.1226 144.291 14.5273C144.291 9.93206 147.71 7.73886 150.404 7.73886C152.062 7.73886 153.305 8.6788 153.616 9.61874V9.82762C153.616 8.6788 154.548 7.8433 155.688 7.8433C156.724 7.8433 157.76 8.6788 157.76 9.82762ZM153.823 14.5273C153.823 12.0208 152.269 11.1853 151.129 11.1853C149.679 11.1853 148.332 12.3341 148.332 14.5273C148.332 16.7205 149.679 17.8693 151.129 17.8693C152.269 17.8693 153.823 17.0338 153.823 14.5273Z" fill="#7D7D7D"/>
<path d="M161.075 21.2114C159.936 21.2114 159.003 20.3759 159.003 19.227V5.02347C159.003 3.87465 159.936 2.93471 161.075 2.93471C162.112 2.93471 163.044 3.87465 163.044 5.02347V19.227C163.044 20.3759 162.112 21.2114 161.075 21.2114Z" fill="#7D7D7D"/>
<path d="M180.45 17.4516C181.382 17.4516 182.211 18.1827 182.211 19.227C182.211 20.2714 181.382 21.1069 180.45 21.1069H172.886C171.54 21.1069 170.504 20.167 170.504 18.8093V5.33678C170.504 4.18796 171.436 3.24802 172.679 3.24802C173.819 3.24802 174.648 4.18796 174.648 5.33678V17.4516H180.45Z" fill="#7D7D7D"/>
<mask id="mask6_100_242" style="mask-type:luminance" maskUnits="userSpaceOnUse" x="183" y="2" width="5" height="5">
<path d="M183.143 4.71015C183.143 5.77542 184.097 6.69447 185.184 6.69447C186.272 6.69447 187.225 5.77542 187.225 4.71015C187.225 3.624 186.272 2.70494 185.184 2.70494C184.097 2.70494 183.143 3.624 183.143 4.71015Z" fill="white"/>
</mask>
<g mask="url(#mask6_100_242)">
<path d="M183.143 2.72583H187.184V6.69447H183.143V2.72583Z" fill="url(#paint5_linear_100_242)"/>
</g>
<path d="M187.184 9.82762V19.227C187.184 20.3759 186.252 21.2114 185.216 21.2114C184.076 21.2114 183.143 20.3759 183.143 19.227V9.82762C183.143 8.6788 184.076 7.8433 185.216 7.8433C186.252 7.8433 187.184 8.6788 187.184 9.82762Z" fill="#7D7D7D"/>
<path d="M210.288 14.1096V19.227C210.288 20.3759 209.356 21.2114 208.32 21.2114C207.18 21.2114 206.351 20.3759 206.351 19.227V14.1096C206.351 12.1253 205.419 11.1853 204.072 11.1853C202 11.1853 201.585 13.2741 201.585 13.5874V14.1096V19.227C201.585 20.3759 200.653 21.2114 199.513 21.2114C198.477 21.2114 197.545 20.3759 197.545 19.227V14.1096C197.545 12.1253 196.612 11.1853 195.265 11.1853C193.193 11.1853 192.779 13.2741 192.779 13.5874V19.227C192.779 20.3759 191.846 21.2114 190.707 21.2114C189.671 21.2114 188.738 20.3759 188.738 19.227V9.82762C188.738 8.6788 189.671 7.8433 190.707 7.8433C191.846 7.8433 192.779 8.6788 192.779 9.82762V10.6631C192.882 9.72318 194.229 7.73886 196.819 7.73886C198.684 7.73886 200.342 8.6788 201.067 10.872C201.689 9.30543 203.346 7.73886 205.626 7.73886C208.216 7.73886 210.288 9.61874 210.288 14.1096Z" fill="#7D7D7D"/>
<path fill-rule="evenodd" clip-rule="evenodd" d="M225 14.5273C225 19.1226 221.063 21.3158 218.162 21.3158C215.261 21.3158 211.324 19.1226 211.324 14.5273C211.324 10.0365 215.261 7.73886 218.162 7.73886C221.063 7.73886 225 10.0365 225 14.5273ZM215.365 14.5273C215.365 16.4072 216.608 17.7649 218.162 17.7649C219.716 17.7649 221.063 16.4072 221.063 14.5273C221.063 12.543 219.716 11.2898 218.162 11.2898C216.608 11.2898 215.365 12.543 215.365 14.5273Z" fill="#7D7D7D"/>
<defs>
<linearGradient id="paint0_linear_100_242" x1="16.7791" y1="13.1634" x2="30.1672" y2="16.0496" gradientUnits="userSpaceOnUse">
<stop stop-color="#404041"/>
<stop offset="1" stop-color="white"/>
</linearGradient>
<linearGradient id="paint1_linear_100_242" x1="16.891" y1="-6.06576" x2="3.93687" y2="6.66809" gradientUnits="userSpaceOnUse">
<stop stop-color="#D63527"/>
<stop offset="1" stop-color="#F7961D"/>
</linearGradient>
<linearGradient id="paint2_linear_100_242" x1="17.5168" y1="2.09293" x2="8.7552" y2="7.90134" gradientUnits="userSpaceOnUse">
<stop stop-color="#FDB831"/>
<stop offset="1" stop-color="#F47528"/>
</linearGradient>
<linearGradient id="paint3_linear_100_242" x1="8.90721" y1="32.1481" x2="35.1715" y2="17.6187" gradientUnits="userSpaceOnUse">
<stop stop-color="#D63527"/>
<stop offset="1" stop-color="#F7961D"/>
</linearGradient>
<linearGradient id="paint4_linear_100_242" x1="7.08064" y1="3.96133" x2="-4.85556" y2="10.7837" gradientUnits="userSpaceOnUse">
<stop stop-color="#FDB831"/>
<stop offset="1" stop-color="#F47528"/>
</linearGradient>
<linearGradient id="paint5_linear_100_242" x1="183.143" y1="6.69239" x2="187.225" y2="6.69239" gradientUnits="userSpaceOnUse">
<stop stop-color="#D63527"/>
<stop offset="1" stop-color="#F7961D"/>
</linearGradient>
</defs>
</svg>
