<svg width="40" height="40" viewBox="0 0 40 40" fill="none" xmlns="http://www.w3.org/2000/svg">
<mask id="mask0_40_147" style="mask-type:alpha" maskUnits="userSpaceOnUse" x="0" y="0" width="40" height="40">
<rect width="40" height="40" fill="#D9D9D9"/>
</mask>
<g mask="url(#mask0_40_147)">
<path d="M19.9999 36.6668C17.6944 36.6668 15.5277 36.2293 13.4999 35.3543C11.4721 34.4793 9.70825 33.2918 8.20825 31.7918C6.70825 30.2918 5.52075 28.5279 4.64575 26.5002C3.77075 24.4724 3.33325 22.3057 3.33325 20.0002C3.33325 17.6946 3.77075 15.5279 4.64575 13.5002C5.52075 11.4724 6.70825 9.7085 8.20825 8.2085C9.70825 6.7085 11.4721 5.521 13.4999 4.646C15.5277 3.771 17.6944 3.3335 19.9999 3.3335C22.3055 3.3335 24.4721 3.771 26.4999 4.646C28.5277 5.521 30.2916 6.7085 31.7916 8.2085C33.2916 9.7085 34.4791 11.4724 35.3541 13.5002C36.2291 15.5279 36.6666 17.6946 36.6666 20.0002C36.6666 22.3057 36.2291 24.4724 35.3541 26.5002C34.4791 28.5279 33.2916 30.2918 31.7916 31.7918C30.2916 33.2918 28.5277 34.4793 26.4999 35.3543C24.4721 36.2293 22.3055 36.6668 19.9999 36.6668ZM19.9583 31.6668C20.3471 31.6668 20.6874 31.521 20.9791 31.2293C21.2708 30.9377 21.4166 30.5974 21.4166 30.2085V29.5835C22.8055 29.3335 23.9999 28.7918 24.9999 27.9585C25.9999 27.1252 26.4999 25.8891 26.4999 24.2502C26.4999 23.0835 26.1666 22.0141 25.4999 21.0418C24.8333 20.0696 23.4999 19.2224 21.4999 18.5002C19.8333 17.9446 18.6805 17.4585 18.0416 17.0418C17.4027 16.6252 17.0833 16.0557 17.0833 15.3335C17.0833 14.6113 17.3402 14.0418 17.8541 13.6252C18.368 13.2085 19.111 13.0002 20.0833 13.0002C20.6388 13.0002 21.1249 13.0974 21.5416 13.2918C21.9583 13.4863 22.3055 13.7502 22.5833 14.0835C22.861 14.4168 23.1735 14.646 23.5208 14.771C23.868 14.896 24.1944 14.8891 24.4999 14.7502C24.9166 14.5835 25.2013 14.2988 25.3541 13.896C25.5069 13.4932 25.4721 13.1252 25.2499 12.7918C24.8055 12.1529 24.2569 11.6113 23.6041 11.1668C22.9513 10.7224 22.2499 10.4724 21.4999 10.4168V9.79183C21.4999 9.40294 21.3541 9.06266 21.0624 8.771C20.7708 8.47933 20.4305 8.3335 20.0416 8.3335C19.6527 8.3335 19.3124 8.47933 19.0208 8.771C18.7291 9.06266 18.5833 9.40294 18.5833 9.79183V10.4168C17.1944 10.7224 16.111 11.3335 15.3333 12.2502C14.5555 13.1668 14.1666 14.1946 14.1666 15.3335C14.1666 16.6391 14.5485 17.6946 15.3124 18.5002C16.0763 19.3057 17.2777 20.0002 18.9166 20.5835C20.6666 21.2224 21.8819 21.7918 22.5624 22.2918C23.243 22.7918 23.5833 23.4446 23.5833 24.2502C23.5833 25.1668 23.2569 25.8404 22.6041 26.271C21.9513 26.7016 21.1666 26.9168 20.2499 26.9168C19.5277 26.9168 18.8749 26.7432 18.2916 26.396C17.7083 26.0488 17.2221 25.5279 16.8333 24.8335C16.611 24.4446 16.3194 24.1807 15.9583 24.0418C15.5971 23.9029 15.236 23.9029 14.8749 24.0418C14.486 24.1807 14.2013 24.4446 14.0208 24.8335C13.8402 25.2224 13.8333 25.5974 13.9999 25.9585C14.4444 26.9029 15.0416 27.6738 15.7916 28.271C16.5416 28.8682 17.4444 29.2779 18.4999 29.5002V30.2085C18.4999 30.5974 18.6458 30.9377 18.9374 31.2293C19.2291 31.521 19.5694 31.6668 19.9583 31.6668Z" fill="#F7941D"/>
</g>
</svg>
