<svg width="40" height="40" viewBox="0 0 40 40" fill="none" xmlns="http://www.w3.org/2000/svg">
<mask id="mask0_40_94" style="mask-type:alpha" maskUnits="userSpaceOnUse" x="0" y="0" width="40" height="40">
<rect width="40" height="40" fill="#D9D9D9"/>
</mask>
<g mask="url(#mask0_40_94)">
<path d="M13.3333 23.3335H26.6667V22.4168C26.6667 21.1946 26.0556 20.2085 24.8333 19.4585C23.6111 18.7085 22 18.3335 20 18.3335C18 18.3335 16.3889 18.7085 15.1667 19.4585C13.9445 20.2085 13.3333 21.1946 13.3333 22.4168V23.3335ZM20 16.6668C20.9167 16.6668 21.7014 16.3404 22.3542 15.6877C23.007 15.0349 23.3333 14.2502 23.3333 13.3335C23.3333 12.4168 23.007 11.6321 22.3542 10.9793C21.7014 10.3266 20.9167 10.0002 20 10.0002C19.0833 10.0002 18.2986 10.3266 17.6458 10.9793C16.9931 11.6321 16.6667 12.4168 16.6667 13.3335C16.6667 14.2502 16.9931 15.0349 17.6458 15.6877C18.2986 16.3404 19.0833 16.6668 20 16.6668ZM10 30.0002L6.16668 33.8335C5.6389 34.3613 5.03473 34.4793 4.35418 34.1877C3.67362 33.896 3.33334 33.3752 3.33334 32.6252V6.66683C3.33334 5.75016 3.65973 4.96544 4.31251 4.31266C4.96529 3.65989 5.75001 3.3335 6.66668 3.3335H33.3333C34.25 3.3335 35.0347 3.65989 35.6875 4.31266C36.3403 4.96544 36.6667 5.75016 36.6667 6.66683V26.6668C36.6667 27.5835 36.3403 28.3682 35.6875 29.021C35.0347 29.6738 34.25 30.0002 33.3333 30.0002H10Z" fill="#F7941D"/>
</g>
</svg>
